<?xml version="1.0" encoding="UTF-8"?>
<svg id="Layer_1" data-name="Layer 1" xmlns="http://www.w3.org/2000/svg" viewBox="0 0 104.14 105.32">
  <defs>
    <style>
      .cls-1 {
        opacity: .95;
      }

      .cls-1, .cls-2 {
        fill: #4b4e32;
      }

      .cls-3 {
        fill: #4e5032;
      }

      .cls-4 {
        fill: #dc825e;
      }
    </style>
  </defs>
  <g>
    <g>
      <path class="cls-2" d="M.44,65.9c-.44-.8.53-.95,1.13-.87,3.66.17,4.9.09,8.29.01.93.16.6,1.05-.09,1.19-1.37.33-1.84.65-1.29,2.09.49,1.36,3.61,10.03,3.86,10.72.05.12.08-.06.27-.54,1.42-4.03,2.86-7.49,3.89-11.1.12-1.34-2.56-.7-2.15-2.07.28-.47.98-.26,1.44-.26,1.32.07,2.27.09,3.64.02.46,0,.98-.09,1.43-.03.5.09.6.59.21.92-.25.24-.64.32-.96.44-.56.18-.96.61-1.12.89-.32.63-.63,1.46-1.43,3.42-1.99,4.93-3.31,8.36-5.54,14.27-.16.53-.56.92-1.11.91-.33-.02-.49.03-.6-.15-.42-1.08-3.83-9.92-4.34-11.26-.85-2.06-2.07-5.28-2.97-7.12-.32-.54-.95-.84-1.68-1.04-.31-.09-.62-.17-.85-.39l-.04-.06Z"/>
      <path class="cls-2" d="M22.38,76.15c-.63.32-1.31-.02-1.09-.74.15-.78.25-1.53.33-2.21.04-.47.38-.81.83-.97,2.52-.94,6.89-1.85,8.7.68.7,1.17.6,2.76.6,4.2-.02,1.13-.05,3.04-.05,3.67-.01,1.05-.05,2.86,1.54,2.26.24-.09.52-.16.76-.05.65.32.02.99-.43,1.21-.89.56-1.68,1.13-2.63,1.36-.86.22-1.87,0-2.41-.65-.27-.36-.55-.9-1.08-.62-.83.42-1.38.93-2.21,1.18-1.68.59-3.98-.1-4.57-1.85-.55-1.4-.31-3.22.75-4.27.65-.61,1.18-.88,2.02-1.27,1.03-.48,3.25-1.51,4.13-1.92.7-.26.26-1.56.08-2.09-.51-1.13-2.16-1.19-3.13-.63-1,.47-1.38,1.77-2.08,2.67l-.06.04ZM27.83,77.59c-.17-.05-.58.22-.87.36-.78.44-1.52.79-2.07,1.45-.92,1.2-.86,4.14,1.19,4.11,1.97-.32,1.84-1.93,1.89-3.88,0-.62,0-1.1,0-1.72,0-.1-.02-.21-.08-.3l-.05-.03Z"/>
      <path class="cls-2" d="M34.51,67.01c-.32-.3,0-.84.41-.96.3-.11.64-.18.95-.27,1.07-.3,1.7-.49,2.64-.89.71-.32,2.09-1.16,2.25.15-.06,1.12-.19,2.32-.24,3.67-.12,2.5-.13,5.44-.12,8.08,0,1.74.01,5.16.03,5.66.03.49.07,1.25.53,1.51.33.24,1.06.34,1.36.67.32.31.23.79-.2.86-.28.04-.61,0-.9-.02-1.78-.09-3.16-.1-4.88-.03-.54,0-1.11.09-1.65.05-.42-.06-.54-.55-.24-.85.45-.42,1.26-.39,1.65-.79.32-.31.4-1.19.42-1.68.04-.88.07-3.38.07-5.93-.01-2.55.04-6-.07-8.35-.04-.39-.42-.67-.81-.75-.34-.11-.85.06-1.15-.1l-.05-.04Z"/>
      <path class="cls-2" d="M50.86,67.07c-.36-.37.12-1.02.61-1.05,1.59-.39,3.05-.91,4.32-1.53.32-.18.75-.26,1.04,0,.2.18.28.47.26.74-.21,2.28-.31,4.77-.33,7.19-.03,2.64,0,7.1.01,8.85.02.52,0,1.35.34,1.7.33.33.99.25,1.49.32.25.09.43.32.33.61-.12.42-.62.48-1,.54-1.28.22-2.19.44-3.39.84-.94.39-2.22.7-1.89-.85.21-1.26-.85-.09-1.28.16-4.29,3.35-7.7-1.11-7.39-5.53-.02-4.49,3.58-8.37,8.2-7.64.28.04.5-.02.61-.23.17-.33.11-.8.13-1.14,0-.45,0-.97-.02-1.38,0-1.15-.38-1.64-1.63-1.47-.15,0-.28,0-.37-.07l-.04-.04ZM52.92,77.84c0-1.34-.07-2.92-.38-3.63-.47-1.26-2.28-1.63-3.24-.55-1.76,1.54-1.73,7.58.39,8.94.98.67,2.42.15,2.82-.94.37-.81.39-2.43.41-3.7v-.12Z"/>
      <path class="cls-2" d="M60.07,78.27c-.09-4.96,4.18-7.82,8.84-6.98,4.54.63,6.06,5.1,5.1,9.18-.78,3.44-3.51,5.44-7.18,5.33-4.36.03-6.86-3.06-6.75-7.44v-.1ZM64.38,77.6c.07,2.3.12,4.27,1.27,5.97.94,1.31,3.13,1.01,3.68-.48.93-2.21.97-7.74-.71-9.8-.66-.81-2.01-.96-2.85-.34-1.28,1.04-1.32,2.72-1.39,4.54v.11Z"/>
      <path class="cls-2" d="M75.72,74.02c-.44-.47.25-1.02.77-1.07,1.74-.42,3.21-.95,4.38-1.52,1.61-.55.94,1.48.94,2.37-.02.45-.08.97.27.61.69-.83,1.27-2.02,2.21-2.51.75-.37,1.88-.55,2.53.04.33.61-.18,1.57-.21,2.26-.1.67-.17,1.74-1.03,1.33-.35-.19-.46-.63-.83-.8-1.85-.68-2.97,2.25-3.01,3.65-.08,1.21-.05,2.47-.03,3.7.03.73-.04,1.01.22,1.51.36.59,1.08.59,1.71.81.41.07.76.55.5.91-.17.24-.55.23-.84.22-1.38-.07-2.49-.11-3.46-.11-1.08,0-2.12.03-3.37.1-.57.11-1.15-.28-.73-.85.4-.39,1.07-.39,1.48-.68.2-.12.3-.22.37-.4.16-.3.28-2.69.28-3.95.01-1.43.04-2.69-.04-4.11-.07-.63-.03-.94-.39-1.2-.48-.37-1.16-.06-1.67-.26l-.05-.04Z"/>
      <path class="cls-2" d="M87.73,78.27c-.09-4.96,4.18-7.82,8.84-6.98,4.54.63,6.06,5.1,5.1,9.18-.78,3.44-3.51,5.44-7.18,5.33-4.36.03-6.86-3.06-6.75-7.44v-.1ZM92.04,77.6c.07,2.3.12,4.27,1.27,5.97.94,1.31,3.13,1.01,3.68-.48.93-2.21.97-7.74-.71-9.8-.66-.81-2.01-.96-2.85-.34-1.28,1.04-1.32,2.72-1.39,4.54v.11Z"/>
    </g>
    <g>
      <path class="cls-1" d="M3.58,102.64v-7.16h1.11v1.1h.08c.13-.36.37-.65.71-.87.34-.22.72-.33,1.15-.33.09,0,.19,0,.3,0,.12,0,.21,0,.28.01v1.16s-.12-.02-.26-.04c-.14-.02-.28-.03-.44-.03-.52,0-.94.16-1.28.47-.34.31-.51.71-.51,1.19v4.48h-1.15Z"/>
      <path class="cls-1" d="M11.31,102.8c-.69,0-1.29-.15-1.79-.46s-.89-.74-1.16-1.29c-.27-.55-.41-1.19-.41-1.93s.13-1.38.4-1.94.64-1,1.12-1.31c.48-.32,1.05-.47,1.7-.47.38,0,.75.06,1.12.19.37.13.7.33,1.01.61.3.28.54.65.72,1.1.18.46.27,1.02.27,1.68v.48h-5.18c.03.75.24,1.32.64,1.72s.92.6,1.55.6c.42,0,.79-.09,1.09-.28.3-.19.52-.46.66-.82l1.11.31c-.17.54-.5.98-1.01,1.32-.51.34-1.13.5-1.86.5ZM9.12,98.48h4c-.06-.61-.25-1.11-.57-1.49-.33-.38-.78-.57-1.37-.57-.41,0-.76.1-1.06.29-.3.19-.53.44-.7.76s-.27.65-.29,1.02Z"/>
      <path class="cls-1" d="M18.77,95.48v.99h-1.47v4.32c0,.32.07.55.2.7.13.15.35.22.65.22.07,0,.17,0,.28-.03.11-.02.22-.03.31-.05l.24.97c-.12.04-.26.07-.41.1-.15.02-.3.03-.45.03-.62,0-1.1-.16-1.45-.49-.35-.33-.52-.78-.52-1.37v-4.41h-1.08v-.99h1.08v-1.7h1.15v1.7h1.47Z"/>
      <path class="cls-1" d="M20.24,102.64v-7.16h1.11v1.1h.08c.13-.36.37-.65.71-.87.34-.22.72-.33,1.15-.33.09,0,.19,0,.3,0,.12,0,.21,0,.28.01v1.16s-.12-.02-.26-.04c-.14-.02-.28-.03-.44-.03-.52,0-.94.16-1.28.47-.34.31-.51.71-.51,1.19v4.48h-1.15Z"/>
      <path class="cls-1" d="M27.97,102.8c-.69,0-1.29-.15-1.79-.46s-.89-.74-1.16-1.29c-.27-.55-.41-1.19-.41-1.93s.13-1.38.4-1.94.64-1,1.12-1.31c.48-.32,1.05-.47,1.7-.47.38,0,.75.06,1.12.19.37.13.7.33,1.01.61.3.28.54.65.72,1.1.18.46.27,1.02.27,1.68v.48h-5.18c.03.75.24,1.32.64,1.72s.92.6,1.55.6c.42,0,.79-.09,1.09-.28.3-.19.52-.46.66-.82l1.11.31c-.17.54-.5.98-1.01,1.32-.51.34-1.13.5-1.86.5ZM25.79,98.48h4c-.06-.61-.25-1.11-.57-1.49-.33-.38-.78-.57-1.37-.57-.41,0-.76.1-1.06.29-.3.19-.53.44-.7.76s-.27.65-.29,1.02Z"/>
      <path class="cls-1" d="M34.74,102.81c-.45,0-.86-.09-1.23-.26s-.66-.42-.88-.75c-.22-.33-.33-.73-.33-1.2,0-.41.08-.74.24-1s.38-.46.65-.61c.27-.15.57-.26.9-.33s.66-.13.99-.17c.43-.06.78-.1,1.04-.13.27-.03.47-.08.6-.15.13-.07.2-.2.2-.37v-.04c0-.44-.13-.79-.38-1.03-.25-.25-.63-.37-1.12-.37s-.92.11-1.21.34c-.29.22-.49.46-.6.71l-1.11-.37c.18-.44.43-.78.74-1.02s.66-.42,1.03-.52c.38-.1.75-.15,1.11-.15.24,0,.51.03.82.09.31.06.6.17.88.34.28.17.52.42.7.76.19.34.28.78.28,1.34v4.72h-1.13v-.97h-.08c-.08.17-.21.34-.39.52s-.41.33-.7.45c-.29.12-.63.18-1.04.18ZM34.94,101.79c.43,0,.79-.08,1.08-.25.29-.17.52-.38.67-.65s.23-.55.23-.84v-.99c-.05.06-.15.11-.31.15-.16.05-.34.08-.54.12-.2.03-.4.06-.59.09-.19.02-.34.04-.45.05-.28.03-.54.09-.78.18-.24.08-.43.2-.58.37-.15.16-.22.38-.22.65,0,.37.14.65.42.84s.63.29,1.06.29Z"/>
      <path class="cls-1" d="M42.92,95.48v.99h-1.47v4.32c0,.32.07.55.2.7.13.15.35.22.65.22.07,0,.17,0,.28-.03.11-.02.22-.03.31-.05l.24.97c-.12.04-.26.07-.41.1-.15.02-.3.03-.45.03-.62,0-1.1-.16-1.45-.49-.35-.33-.52-.78-.52-1.37v-4.41h-1.08v-.99h1.08v-1.7h1.15v1.7h1.47Z"/>
      <path class="cls-1" d="M50.79,102.77c-.63,0-1.17-.12-1.63-.35-.46-.23-.81-.55-1.05-.94-.25-.4-.37-.84-.37-1.33,0-.41.08-.76.24-1.05s.39-.57.67-.83c.28-.25.61-.52.97-.78-.33-.4-.6-.78-.8-1.13-.2-.35-.3-.75-.3-1.19,0-.63.21-1.15.64-1.55.42-.4.99-.61,1.7-.61.48,0,.89.09,1.24.28.35.19.61.43.8.74s.28.65.28,1.03c0,.44-.12.83-.36,1.16-.24.34-.54.64-.91.92l-.69.51,2.04,2.48c.12-.24.22-.5.29-.79.07-.29.1-.59.1-.92h1.11c0,.67-.08,1.21-.25,1.62-.16.42-.34.74-.52.98l1.33,1.61h-1.39l-.66-.79c-.32.31-.7.54-1.15.69-.45.15-.89.23-1.33.23ZM52.58,101.02l-2.25-2.7-.33.24c-.39.29-.67.56-.83.81-.16.25-.24.52-.24.82,0,.47.16.85.49,1.14.33.29.76.44,1.29.44.7,0,1.33-.25,1.87-.74ZM50.52,96.83l.62-.46c.11-.09.24-.19.38-.31.14-.12.25-.26.35-.43.1-.17.14-.36.14-.58,0-.3-.1-.55-.3-.75-.2-.2-.48-.29-.82-.29-.36,0-.66.11-.88.32s-.33.49-.33.84c0,.29.08.56.23.82s.36.54.61.85Z"/>
      <path class="cls-1" d="M63.24,102.8c-.69,0-1.29-.15-1.79-.46s-.89-.74-1.16-1.29c-.27-.55-.41-1.19-.41-1.93s.13-1.38.4-1.94.64-1,1.12-1.31c.48-.32,1.05-.47,1.7-.47.38,0,.75.06,1.12.19.37.13.7.33,1.01.61.3.28.54.65.72,1.1.18.46.27,1.02.27,1.68v.48h-5.18c.03.75.24,1.32.64,1.72s.92.6,1.55.6c.42,0,.79-.09,1.09-.28.3-.19.52-.46.66-.82l1.11.31c-.17.54-.5.98-1.01,1.32-.51.34-1.13.5-1.86.5ZM61.05,98.48h4c-.06-.61-.25-1.11-.57-1.49-.33-.38-.78-.57-1.37-.57-.41,0-.76.1-1.06.29-.3.19-.53.44-.7.76s-.27.65-.29,1.02Z"/>
      <path class="cls-1" d="M70.31,102.8c-.73,0-1.35-.16-1.83-.48-.49-.32-.79-.79-.92-1.41l1.1-.26c.1.39.3.68.58.87.28.18.64.28,1.07.28.5,0,.9-.11,1.19-.32.3-.21.45-.47.45-.76,0-.49-.35-.82-1.05-.99l-1.19-.28c-1.28-.3-1.92-.95-1.92-1.95,0-.41.12-.77.35-1.09.23-.31.55-.56.94-.74.4-.18.85-.27,1.36-.27.74,0,1.31.16,1.72.48.41.32.69.74.86,1.24l-1.04.27c-.1-.26-.26-.49-.49-.7-.23-.21-.57-.31-1.03-.31-.43,0-.78.1-1.07.3-.28.2-.43.44-.43.74,0,.26.1.48.29.64.19.16.5.29.92.39l1.08.26c.65.15,1.13.39,1.44.71s.47.73.47,1.22c0,.42-.12.79-.36,1.12-.24.33-.57.58-.99.77s-.92.28-1.48.28Z"/>
      <path class="cls-1" d="M77.71,102.8c-.65,0-1.22-.15-1.71-.46s-.87-.74-1.14-1.29-.41-1.2-.41-1.93.14-1.4.41-1.96c.27-.56.65-.99,1.14-1.3s1.06-.46,1.71-.46c.69,0,1.3.17,1.82.52.52.35.88.83,1.08,1.46l-1.11.31c-.11-.37-.31-.67-.62-.91-.31-.24-.7-.36-1.17-.36s-.87.13-1.18.38c-.31.25-.54.58-.69.98-.15.41-.22.85-.22,1.33s.07.91.22,1.31c.15.4.38.73.69.98.31.25.7.37,1.18.37s.88-.12,1.2-.37c.31-.25.52-.56.63-.95l1.1.31c-.19.64-.55,1.14-1.08,1.5-.53.36-1.14.54-1.84.54Z"/>
      <path class="cls-1" d="M84.43,102.81c-.45,0-.86-.09-1.23-.26s-.66-.42-.88-.75c-.22-.33-.33-.73-.33-1.2,0-.41.08-.74.24-1s.38-.46.65-.61c.27-.15.57-.26.9-.33s.66-.13.99-.17c.43-.06.78-.1,1.04-.13.27-.03.47-.08.6-.15.13-.07.2-.2.2-.37v-.04c0-.44-.13-.79-.38-1.03-.25-.25-.63-.37-1.12-.37s-.92.11-1.21.34c-.29.22-.49.46-.6.71l-1.11-.37c.18-.44.43-.78.74-1.02s.66-.42,1.03-.52c.38-.1.75-.15,1.11-.15.24,0,.51.03.82.09.31.06.6.17.88.34.28.17.52.42.7.76.19.34.28.78.28,1.34v4.72h-1.13v-.97h-.08c-.08.17-.21.34-.39.52s-.41.33-.7.45c-.29.12-.63.18-1.04.18ZM84.62,101.79c.43,0,.79-.08,1.08-.25.29-.17.52-.38.67-.65s.23-.55.23-.84v-.99c-.05.06-.15.11-.31.15-.16.05-.34.08-.54.12-.2.03-.4.06-.59.09-.19.02-.34.04-.45.05-.28.03-.54.09-.78.18-.24.08-.43.2-.58.37-.15.16-.22.38-.22.65,0,.37.14.65.42.84s.63.29,1.06.29Z"/>
      <path class="cls-1" d="M89.79,105.32v-9.84h1.11v1.15h.13c.08-.13.19-.29.34-.48.15-.19.35-.37.63-.52.27-.15.64-.23,1.11-.23.6,0,1.12.15,1.58.45.46.3.81.73,1.07,1.28.26.55.39,1.21.39,1.96s-.13,1.42-.38,1.97c-.26.56-.61.98-1.07,1.29-.46.3-.98.46-1.58.46-.45,0-.82-.08-1.1-.23s-.49-.33-.64-.53c-.15-.2-.26-.36-.35-.5h-.09v3.79h-1.15ZM92.94,101.77c.45,0,.82-.12,1.12-.36.3-.24.53-.57.68-.97.15-.41.23-.86.23-1.36s-.07-.94-.22-1.34c-.15-.4-.37-.72-.68-.95-.3-.23-.68-.35-1.13-.35-.66,0-1.16.24-1.5.73s-.51,1.13-.51,1.92.17,1.45.52,1.95c.35.5.84.75,1.49.75Z"/>
      <path class="cls-1" d="M100.83,102.8c-.69,0-1.29-.15-1.79-.46s-.89-.74-1.16-1.29c-.27-.55-.41-1.19-.41-1.93s.13-1.38.4-1.94.64-1,1.12-1.31c.48-.32,1.05-.47,1.7-.47.38,0,.75.06,1.12.19.37.13.7.33,1.01.61.3.28.54.65.72,1.1.18.46.27,1.02.27,1.68v.48h-5.18c.03.75.24,1.32.64,1.72s.92.6,1.55.6c.42,0,.79-.09,1.09-.28.3-.19.52-.46.66-.82l1.11.31c-.17.54-.5.98-1.01,1.32-.51.34-1.13.5-1.86.5ZM98.65,98.48h4c-.06-.61-.25-1.11-.57-1.49-.33-.38-.78-.57-1.37-.57-.41,0-.76.1-1.06.29-.3.19-.53.44-.7.76s-.27.65-.29,1.02Z"/>
    </g>
  </g>
  <g>
    <g>
      <path class="cls-4" d="M87.5,23.28c.51-.83.95-1.71,1.3-2.63.04-.1-.04-.22-.15-.22h-13.66c-.17,0-.22.22-.08.3,1.5.82,2.99,1.69,4.46,2.61.03.02.05.02.08.02h7.9c.06,0,.11-.03.14-.08Z"/>
      <path class="cls-4" d="M63.87,15.81c2.06.69,4.24,1.57,6.46,2.6.02,0,.04.01.07.01h18.92c.08,0,.14-.05.16-.13.17-.85.27-1.74.3-2.63,0-.09-.07-.17-.16-.17h-25.69c-.18,0-.22.25-.05.31Z"/>
      <path class="cls-4" d="M81.17,24.49c1.1.73,2.18,1.48,3.22,2.24.06.04.14.04.2,0,.78-.68,1.48-1.44,2.11-2.27.08-.11,0-.26-.13-.26h-5.31c-.16,0-.22.2-.09.29Z"/>
      <path class="cls-4" d="M89.37,12.66c.1,0,.18-.09.16-.19C88.19,5.21,81.74-.2,74.13,0c-7.33.19-13.31,5.53-14.59,12.46-.02.1.06.19.16.19h29.67Z"/>
    </g>
    <g>
      <path class="cls-3" d="M104.12,36.42c-3-3.56-12.51-8.78-17.38-9.01-.44-.02-1.74.25-2.91.51-8.05-5.93-17.78-10.75-24.54-11.92-.87-.15-2.65.37-3.49.65-2,.67-7.1,1.64-8.11,3.56-3.35-2.19-8.47-6.7-12.04-7.92-.72-.25-2.52-1.02-4.26-.44-1.99.66-4.84,4-6.54,5.23-3.06,2.22-9,6.01-12.15,8.09C9.65,27.2-.42,31.82.01,33.45c.33,1.24,15.53-8.26,19.61-9.85,1.11-.44-6.38,4.87-5.67,5.71.66.78,2.85-1.17,3.7-1.74,2.15-1.44,5.74-5.25,7.84-6.76.87-.63,2.77-2.71,3.7-2.18.99.57-.53,2.25-1.02,3.07-.72,1.22,2.91,5.47,4.07,6.3.7.5,3.46,1.93,3.27,1.09-.27-1.14-2.22-2.41-2.74-4.04-.45-1.44-.39-4.55.1-6s1.72,1.06,2.86,1.99c2.13,1.74,6.51,5.35,9.15,6.1,1.36.39-2.15-3.23-3.05-4.14-1.53-1.55-4.89-3.4-6.25-5.11-.67-.84-1.6-2.35-1.84-3.29-.38-1.49,3.28,1.73,4.6,2.52,4.63,2.76,11.98,7.68,16.66,10.36,4,2.3,12.7,7.06,17.04,8.62,1.89.68,2.86,1.13,2.91.63.12-1.36-13.73-8.7-22.33-13.57,1.23-.5,2.59-1.47,3.64-1.3,1.35.21,3.9,2.03,4.96,2.88,1.18.94,2.69,2.54,5.21,3.66.85.38-.84-1.3-1.36-2.08-1.08-1.64-4.35-5.22-6.1-6.1-.59-.3-1.36-.77-2.76-.92-.91-.09,1.11-1.26,3.87-.44,10.8,3.22,38.14,22.69,31.86,16.12-1.8-1.89-3.91-3.76-6.19-5.56.21-.09.39-.14.52-.11,3.58.87,7.6,3.17,13.95,5.62.45.18,4.19,1.87,3.87,1.5Z"/>
      <path class="cls-3" d="M74.19,46.94c-2.16-.11-5.47-.21-7.42-.25-.15,0-.2-.01-.2-.16,0-.49,0-3.23,0-3.85-.02-.18.13-.21.27-.2.45,0,1.72,0,2.02,0,.04,0,.03,0,.06,0,.03,0,.03-.03.03-.04,0-.02-.03-.06-.09-.13-.76-.78-1.71-1.7-3.09-3.09-1.23-1.25-4.18-4.42-5.36-5.4-.15-.12-.35-.17-.54-.12-.34.08-.7.12-1.28.22-2.58.41-10.23,1.51-11.89,1.72-.02,0-.04,0-.04-.02-.02-.04-.02-.14-.02-.33,0-.57,0-1.9,0-2.69,0-.25.04-.74-.09-.71-.68-.04-3.34,0-3.84,0-.17,0-.13.11-.13.46,0,1.08,0,2.84,0,4,0,.15-.06.3-.17.41-1.13,1.12-6.25,5.15-7.66,6.38-.03.03-.07.05-.09.08-.16.14-.28.21.02.22.48.02,1.84.04,2.31.06.21,0,.29.12.29.31.02.38.05,1.26.06,1.53-.01.06.02.18-.02.19-.42-.05-6.56-.84-12.29-1.42.17-.21.04-.74.19-.85.2-.11.46.03.68.05.73.15,1.55.36,2.32.48.06,0-.05-.06-.25-.17-.23-.13-.47-.26-.67-.43l-.04-.03c-1.97-1.92-1.66-1.46.6-1.23.55.09.12-.15-.05-.3-.9-.75-2.32-1.19-2.51-2.47.02-.04.07-.04.12-.03.21.03.77.22,1.07.29.16.04.24.06.23.01-.22-.32-.61-.71-.86-1.04-.65-.74-.85-1.84-1.18-2.74-.4.85-.71,2.46-1.57,3.09-.24.23-.56.51-.91.36-.64-.3-1.08-.84-1.48-1.4-.05-.08-.18-.23-.04-.26.18-.03.92.1,1.26.13.37.04.18-.08.02-.21-.59-.46-1.21-.88-1.6-1.45-.19-.27-.32-.6-.4-.91-.02-.12-.05-.2.03-.24.31,0,1.27.4,1.71.52.2.06.23.06.11-.04-.14-.11-.37-.31-.54-.45-.58-.48-1-.94-1.26-1.66-.2-.49-.4-1.06-.56-1.55-.05-.14-.07-.21-.1-.19,0,0-.02.02-.03.05-.09.25-.41,1.41-.68,1.97-.31.67-1.79,1.95-1.97,2.17-.01.04.09,0,.14-.02.48-.18,1.07-.41,1.55-.59.26-.1.4-.15.4-.06-.02.19-.18.46-.28.65-.48.92-1.35,1.38-2.15,1.97.43.07,1.19-.13,1.67-.08.41.06-1.14,1.36-1.35,1.46-.36.25-.92.59-.86.61.26,0,1.1-.21,1.42-.27.17,0,1.11-.34,1.03-.08-.72.85-1.65,1.56-2.58,2.16-.1.07-.24.15-.3.21-.06.06.08.04.35,0,.37-.05.94-.14,1.36-.2.81-.11,1.01-.21.53.2-.34.3-.64.66-1.05.87-.47.26-1.36.65-1.44.71-.01.01-.01.02,0,.02.02,0,.1,0,.22,0,.84-.05,1.72-.1,2.51-.29.21-.03.45-.12.66-.1.25.06.12.51.22.78-.58-.03-1.12-.06-1.59-.07-5.35,0-10.53,1.26-15.91,3.6l-.04.02c-4.33,1.78,10.36-2.23,17.29-1.64,7.56.4,27.91,2.96,27.88,2.96-.3.07-.58.12-1.19.24-4.8.99-10.39,2.21-15.4,3.48-4.18,1.11-7.08,1.81-9.78,3.1-5.19,2.61,16.92-2.48,23.71-3.43,11.16-1.99,21.13-2.89,32.87-4.63.17-.1-.89-.19-2.38-.26ZM20.49,39.16c.58.14,1.08.08,1.65.23.15.09-.23.28.07.17.44-.14,1.61-.59,1.89-.63.04.2-.16.7-.23.92l-.02.05c-.14.31-.42.63-.66.88-.18.16-.37.39-.62.39-.2-.02-.38-.2-.56-.32-.64-.47-1.23-.9-1.85-1.4-.1-.1-.34-.25-.34-.35.18-.06.46.06.66.07ZM21.81,41.83c.21-.02,1.46-.19,1.67-.21.07,0,.04.04.02.11-.1.23-.24.6-.35.83l-.02.04c-.1.17-.32.45-.56.33-.51-.26-1.31-.72-1.57-1.01-.15-.22-.65-.64-.75-.73.03-.06,1.64.09,2.07.12.02,0,.02.02.01.04-.05.08-.38.33-.49.42-.07.06-.09.08-.03.07ZM19.19,43.59c.11-.21.03-.56.2-.65.14-.08.34-.03.51-.02.67.07,1.4.1,2.13.17.28.04.37.1.22.32,0,.03.02.04.1.04.59,0,1.34-.11,1.92-.12.35.02.2.49.35.71-1.95-.2-3.84-.36-5.43-.47ZM45.91,36.02v.02c-.33.32-1.09.85-1.46,1.15-.1.06-.16.15-.19.04-.01-.42,0-3.58,0-4.33,0-.08,0-.14.04-.19.32-.09.98-.02,1.37-.04.14,0,.28.02.27.19-.02.5.05,2.42-.03,3.15ZM58.87,46.75c-.89,0-1.96,0-2.83,0-.36,0-.57,0-.66-.09h-.01c-.09-.12-.08-.38-.08-.82,0-.77,0-1.72,0-2.52,0-.51-.08-.89.52-.85,1.03,0,2.2,0,3.22,0,.81,0,.81.01.8.85,0,.87,0,1.93,0,2.82.06.78-.43.57-.97.6ZM65.2,46.29c.04.53-.36.46-.81.46-.75,0-1.64,0-2.38,0-.42,0-.67.01-.77-.08h-.01c-.09-.11-.08-.31-.08-.66,0-.8,0-1.81,0-2.64.03-.49-.15-.95.56-.9.85,0,1.84,0,2.69,0,.81,0,.82.01.81.79,0,.94,0,2.06,0,3.03ZM65.11,41.32c-1-.04-8.31.11-9.83-.05.91-1.04,2.53-2.54,3.56-3.61.66-.61.9-1.01,1.28-1.2h.01c.35.15.55.49,1.16,1.03.57.55,1.29,1.24,1.96,1.89.81.8,1.42,1.32,1.92,1.88.02.04,0,.06-.08.07Z"/>
    </g>
  </g>
</svg>