<?xml version="1.0" encoding="UTF-8"?>
<svg id="Layer_1" data-name="Layer 1" xmlns="http://www.w3.org/2000/svg" viewBox="0 0 560.44 147.4">
  <defs>
    <style>
      .cls-1 {
        opacity: .95;
      }

      .cls-1, .cls-2 {
        fill: #4b4e32;
      }

      .cls-3 {
        fill: #4e5032;
      }

      .cls-4 {
        fill: #dc825e;
      }
    </style>
  </defs>
  <g>
    <g>
      <path class="cls-2" d="M288.33,35.28c-1.16-2.1,1.39-2.49,2.96-2.3,9.63.45,12.9.23,21.81.03,2.46.43,1.57,2.76-.22,3.13-3.61.86-4.85,1.72-3.38,5.5,1.29,3.57,9.49,26.41,10.17,28.22.13.32.22-.15.7-1.42,3.73-10.61,7.52-19.71,10.25-29.21.31-3.52-6.73-1.84-5.65-5.45.74-1.22,2.59-.67,3.8-.7,3.48.18,5.97.23,9.59.06,1.2-.01,2.59-.25,3.77-.08,1.3.24,1.57,1.56.57,2.43-.66.63-1.69.84-2.53,1.17-1.48.48-2.52,1.6-2.96,2.34-.84,1.67-1.66,3.85-3.75,8.99-5.23,12.98-8.72,22-14.58,37.56-.41,1.4-1.47,2.43-2.92,2.39-.86-.04-1.3.08-1.58-.4-1.11-2.83-10.07-26.12-11.43-29.63-2.23-5.42-5.44-13.9-7.82-18.74-.85-1.43-2.5-2.22-4.41-2.74-.82-.23-1.63-.45-2.25-1.02l-.12-.15Z"/>
      <path class="cls-2" d="M346.09,62.26c-1.66.83-3.46-.05-2.87-1.94.39-2.06.67-4.04.88-5.81.12-1.25,1.01-2.14,2.19-2.56,6.64-2.47,18.13-4.87,22.89,1.79,1.84,3.07,1.57,7.25,1.57,11.06-.04,2.97-.12,8-.14,9.66-.03,2.75-.13,7.52,4.05,5.94.64-.23,1.37-.43,2-.14,1.7.84.06,2.61-1.12,3.19-2.33,1.46-4.41,2.98-6.91,3.58-2.27.58-4.92,0-6.35-1.7-.71-.94-1.45-2.38-2.85-1.63-2.19,1.11-3.64,2.44-5.81,3.1-4.43,1.55-10.49-.27-12.04-4.88-1.46-3.69-.8-8.47,1.97-11.25,1.71-1.61,3.09-2.32,5.31-3.33,2.7-1.26,8.56-3.98,10.88-5.06,1.85-.68.69-4.11.22-5.5-1.35-2.98-5.68-3.14-8.24-1.65-2.62,1.23-3.63,4.65-5.47,7.02l-.17.12ZM360.44,66.04c-.46-.12-1.52.58-2.29.94-2.05,1.15-3.99,2.07-5.45,3.82-2.41,3.16-2.27,10.91,3.13,10.81,5.2-.85,4.84-5.09,4.98-10.2.02-1.62,0-2.89-.01-4.53-.02-.26-.05-.57-.22-.78l-.14-.07Z"/>
      <path class="cls-2" d="M378.03,38.2c-.84-.79,0-2.22,1.07-2.53.8-.29,1.69-.47,2.49-.7,2.82-.78,4.46-1.28,6.94-2.33,1.88-.85,5.5-3.06,5.94.4-.15,2.95-.5,6.12-.62,9.67-.32,6.58-.35,14.32-.33,21.26,0,4.58.03,13.57.08,14.91.07,1.29.19,3.29,1.4,3.98.87.64,2.8.89,3.59,1.76.83.82.62,2.09-.54,2.27-.74.1-1.6-.02-2.37-.05-4.69-.24-8.31-.27-12.85-.09-1.41.01-2.93.24-4.33.13-1.11-.17-1.41-1.44-.64-2.23,1.18-1.11,3.31-1.02,4.33-2.09.84-.82,1.05-3.14,1.11-4.43.1-2.32.18-8.89.19-15.61-.03-6.72.1-15.79-.19-21.98-.1-1.02-1.1-1.77-2.12-1.98-.9-.29-2.24.17-3.03-.26l-.12-.09Z"/>
      <path class="cls-2" d="M421.07,38.36c-.96-.98.32-2.68,1.61-2.76,4.2-1.04,8.02-2.38,11.38-4.03.84-.47,1.98-.68,2.74,0,.52.47.74,1.24.69,1.95-.55,5.99-.8,12.57-.87,18.92-.07,6.96-.01,18.68.03,23.28.06,1.37-.02,3.56.9,4.46.87.88,2.61.66,3.92.84.66.24,1.12.85.86,1.6-.31,1.1-1.62,1.27-2.62,1.42-3.37.58-5.77,1.16-8.93,2.21-2.47,1.03-5.83,1.84-4.97-2.24.56-3.32-2.24-.23-3.38.42-11.3,8.81-20.26-2.92-19.46-14.56-.05-11.81,9.42-22.03,21.58-20.11.74.1,1.32-.05,1.62-.62.44-.86.3-2.11.35-3.01.02-1.18.02-2.55-.04-3.63-.01-3.04-.99-4.3-4.3-3.88-.39.03-.73,0-.97-.17l-.12-.1ZM426.48,66.7c-.02-3.53-.18-7.67-1-9.55-1.24-3.32-6.01-4.29-8.52-1.45-4.63,4.05-4.56,19.96,1.03,23.52,2.58,1.76,6.38.38,7.42-2.47.97-2.13,1.03-6.41,1.07-9.74v-.31Z"/>
      <path class="cls-2" d="M445.3,67.84c-.25-13.07,10.99-20.59,23.26-18.38,11.95,1.66,15.96,13.43,13.42,24.17-2.04,9.06-9.23,14.31-18.9,14.03-11.48.09-18.07-8.06-17.78-19.57v-.25ZM456.65,66.07c.17,6.06.31,11.24,3.35,15.72,2.47,3.44,8.23,2.65,9.69-1.26,2.45-5.82,2.55-20.37-1.88-25.81-1.73-2.12-5.28-2.52-7.5-.89-3.38,2.74-3.47,7.16-3.67,11.95v.29Z"/>
      <path class="cls-2" d="M486.49,56.65c-1.15-1.23.65-2.68,2.04-2.81,4.58-1.12,8.44-2.49,11.53-3.99,4.24-1.46,2.47,3.9,2.48,6.23-.06,1.19-.22,2.56.72,1.59,1.81-2.2,3.35-5.3,5.81-6.6,1.97-.98,4.95-1.46,6.67.11.87,1.59-.48,4.12-.57,5.96-.25,1.75-.46,4.57-2.72,3.49-.92-.5-1.22-1.65-2.18-2.11-4.87-1.78-7.81,5.92-7.93,9.6-.21,3.19-.12,6.51-.09,9.73.09,1.92-.12,2.66.57,3.97.96,1.56,2.83,1.55,4.51,2.12,1.08.19,1.99,1.44,1.32,2.4-.44.64-1.45.62-2.22.57-3.64-.18-6.57-.28-9.11-.28-2.85,0-5.59.09-8.88.27-1.51.29-3.03-.75-1.91-2.24,1.06-1.01,2.83-1.02,3.91-1.79.52-.33.78-.57.98-1.04.42-.8.74-7.08.74-10.39.03-3.77.1-7.08-.12-10.83-.17-1.67-.07-2.47-1.02-3.16-1.26-.98-3.04-.17-4.38-.69l-.13-.1Z"/>
      <path class="cls-2" d="M518.11,67.84c-.25-13.07,10.99-20.59,23.26-18.38,11.95,1.66,15.96,13.43,13.42,24.17-2.04,9.06-9.23,14.31-18.9,14.03-11.48.09-18.07-8.06-17.78-19.57v-.25ZM529.46,66.07c.17,6.06.31,11.24,3.35,15.72,2.47,3.44,8.23,2.65,9.69-1.26,2.45-5.82,2.55-20.37-1.88-25.81-1.73-2.12-5.28-2.52-7.5-.89-3.38,2.74-3.47,7.16-3.67,11.95v.29Z"/>
    </g>
    <g>
      <path class="cls-1" d="M296.6,131.98v-18.85h2.93v2.9h.2c.35-.96.97-1.72,1.86-2.3.89-.58,1.9-.87,3.03-.87.23,0,.49,0,.8.02.31.01.55.02.73.03v3.05c-.09-.02-.31-.06-.67-.1-.36-.04-.74-.07-1.15-.07-1.36,0-2.48.41-3.37,1.24-.89.83-1.33,1.87-1.33,3.14v11.8h-3.04Z"/>
      <path class="cls-1" d="M316.95,132.39c-1.82,0-3.39-.4-4.71-1.21s-2.34-1.94-3.05-3.39c-.71-1.45-1.07-3.14-1.07-5.08s.35-3.64,1.05-5.11,1.68-2.62,2.96-3.46c1.27-.83,2.77-1.25,4.48-1.25,1,0,1.99.17,2.96.5.97.33,1.85.86,2.65,1.6.79.74,1.42,1.71,1.9,2.91.47,1.2.71,2.68.71,4.42v1.26h-13.62c.08,1.97.64,3.48,1.69,4.53s2.41,1.58,4.09,1.58c1.11,0,2.07-.24,2.88-.73.8-.49,1.38-1.21,1.73-2.17l2.93.81c-.44,1.43-1.32,2.58-2.66,3.47-1.33.88-2.96,1.32-4.9,1.32ZM311.2,121.02h10.52c-.15-1.61-.65-2.91-1.51-3.92-.86-1.01-2.07-1.51-3.62-1.51-1.08,0-2.01.25-2.79.76-.78.51-1.4,1.17-1.85,1.99s-.7,1.71-.76,2.68Z"/>
      <path class="cls-1" d="M336.58,113.13v2.6h-3.88v11.36c0,.84.17,1.46.51,1.85.34.39.91.58,1.71.58.19,0,.44-.02.73-.07.3-.04.57-.09.82-.13l.62,2.56c-.31.11-.67.2-1.07.25-.4.06-.8.08-1.19.08-1.63,0-2.9-.43-3.81-1.29-.91-.86-1.37-2.06-1.37-3.6v-11.6h-2.83v-2.6h2.83v-4.49h3.04v4.49h3.88Z"/>
      <path class="cls-1" d="M340.45,131.98v-18.85h2.93v2.9h.2c.35-.96.97-1.72,1.86-2.3.89-.58,1.9-.87,3.03-.87.23,0,.49,0,.8.02.31.01.55.02.73.03v3.05c-.09-.02-.31-.06-.67-.1-.36-.04-.74-.07-1.15-.07-1.36,0-2.48.41-3.37,1.24-.89.83-1.33,1.87-1.33,3.14v11.8h-3.04Z"/>
      <path class="cls-1" d="M360.81,132.39c-1.82,0-3.39-.4-4.71-1.21s-2.34-1.94-3.05-3.39c-.71-1.45-1.07-3.14-1.07-5.08s.35-3.64,1.05-5.11,1.68-2.62,2.96-3.46c1.27-.83,2.77-1.25,4.48-1.25,1,0,1.99.17,2.96.5.97.33,1.85.86,2.65,1.6.79.74,1.42,1.71,1.9,2.91.47,1.2.71,2.68.71,4.42v1.26h-13.62c.08,1.97.64,3.48,1.69,4.53s2.41,1.58,4.09,1.58c1.11,0,2.07-.24,2.88-.73.8-.49,1.38-1.21,1.73-2.17l2.93.81c-.44,1.43-1.32,2.58-2.66,3.47-1.33.88-2.96,1.32-4.9,1.32ZM355.06,121.02h10.52c-.15-1.61-.65-2.91-1.51-3.92-.86-1.01-2.07-1.51-3.62-1.51-1.08,0-2.01.25-2.79.76-.78.51-1.4,1.17-1.85,1.99s-.7,1.71-.76,2.68Z"/>
      <path class="cls-1" d="M378.63,132.42c-1.19,0-2.27-.23-3.25-.67s-1.74-1.11-2.32-1.97c-.57-.86-.86-1.92-.86-3.15,0-1.08.21-1.96.64-2.63s1-1.21,1.71-1.59c.71-.39,1.5-.68,2.37-.87s1.74-.34,2.61-.46c1.12-.15,2.04-.26,2.75-.34.71-.08,1.23-.21,1.58-.4.34-.19.51-.52.51-.98v-.1c0-1.17-.33-2.08-1-2.72-.66-.65-1.65-.97-2.95-.97s-2.42.3-3.19.88c-.76.59-1.29,1.22-1.58,1.88l-2.92-.96c.48-1.15,1.14-2.04,1.96-2.69s1.73-1.1,2.72-1.37c.99-.27,1.97-.4,2.93-.4.63,0,1.35.08,2.15.23.8.15,1.58.45,2.33.9.75.45,1.37,1.11,1.85,2,.49.88.73,2.06.73,3.53v12.43h-2.98v-2.56h-.2c-.21.44-.56.89-1.03,1.36s-1.08.86-1.84,1.17c-.75.31-1.66.47-2.73.47ZM379.15,129.74c1.12,0,2.07-.22,2.85-.66.77-.44,1.37-1.01,1.77-1.71s.61-1.44.61-2.2v-2.61c-.12.15-.39.28-.81.4-.42.12-.89.22-1.42.31-.53.09-1.05.16-1.55.23-.5.06-.9.11-1.19.14-.73.09-1.41.25-2.05.46-.64.22-1.14.54-1.53.96-.38.42-.57.99-.57,1.71,0,.98.37,1.72,1.1,2.22s1.67.75,2.79.75Z"/>
      <path class="cls-1" d="M400.16,113.13v2.6h-3.88v11.36c0,.84.17,1.46.51,1.85.34.39.91.58,1.71.58.19,0,.44-.02.73-.07.3-.04.57-.09.82-.13l.62,2.56c-.31.11-.67.2-1.07.25-.4.06-.8.08-1.19.08-1.63,0-2.9-.43-3.81-1.29-.91-.86-1.37-2.06-1.37-3.6v-11.6h-2.83v-2.6h2.83v-4.49h3.04v4.49h3.88Z"/>
      <path class="cls-1" d="M420.87,132.32c-1.65,0-3.08-.31-4.28-.92-1.2-.61-2.13-1.44-2.77-2.48-.65-1.04-.97-2.21-.97-3.5,0-1.07.21-1.99.64-2.77s1.01-1.51,1.76-2.17c.75-.67,1.6-1.36,2.55-2.07-.88-1.06-1.58-2.05-2.12-2.99-.53-.93-.8-1.97-.8-3.12,0-1.66.56-3.03,1.68-4.09,1.12-1.06,2.61-1.59,4.48-1.59,1.26,0,2.34.24,3.25.73.91.49,1.61,1.14,2.11,1.96s.74,1.72.74,2.72c0,1.16-.31,2.18-.94,3.06-.62.88-1.42,1.69-2.4,2.42l-1.82,1.35,5.38,6.52c.33-.63.58-1.32.76-2.08.18-.76.27-1.57.27-2.42h2.92c0,1.75-.22,3.18-.65,4.27-.43,1.1-.89,1.95-1.37,2.57l3.51,4.25h-3.66l-1.74-2.09c-.83.82-1.84,1.43-3.03,1.83-1.19.4-2.35.6-3.5.6ZM425.57,127.72l-5.94-7.12-.86.64c-1.03.76-1.76,1.47-2.18,2.13-.42.66-.63,1.37-.63,2.15,0,1.24.43,2.24,1.3,3,.87.76,2,1.15,3.39,1.15,1.85,0,3.5-.65,4.92-1.96ZM420.16,116.67l1.64-1.21c.3-.22.63-.49.99-.81.36-.31.67-.69.92-1.13.25-.44.38-.95.38-1.53,0-.8-.27-1.46-.8-1.97-.53-.52-1.26-.77-2.17-.77-.96,0-1.73.28-2.31.85s-.88,1.3-.88,2.2c0,.75.21,1.47.62,2.15s.95,1.42,1.61,2.23Z"/>
      <path class="cls-1" d="M453.63,132.39c-1.82,0-3.39-.4-4.71-1.21s-2.34-1.94-3.05-3.39c-.71-1.45-1.07-3.14-1.07-5.08s.35-3.64,1.05-5.11,1.68-2.62,2.96-3.46c1.27-.83,2.77-1.25,4.48-1.25,1,0,1.99.17,2.96.5.97.33,1.85.86,2.65,1.6.79.74,1.42,1.71,1.9,2.91.47,1.2.71,2.68.71,4.42v1.26h-13.62c.08,1.97.64,3.48,1.69,4.53s2.41,1.58,4.09,1.58c1.11,0,2.07-.24,2.88-.73.8-.49,1.38-1.21,1.73-2.17l2.93.81c-.44,1.43-1.32,2.58-2.66,3.47-1.33.88-2.96,1.32-4.9,1.32ZM447.88,121.02h10.52c-.15-1.61-.65-2.91-1.51-3.92-.86-1.01-2.07-1.51-3.62-1.51-1.08,0-2.01.25-2.79.76-.78.51-1.4,1.17-1.85,1.99s-.7,1.71-.76,2.68Z"/>
      <path class="cls-1" d="M472.24,132.39c-1.93,0-3.54-.42-4.82-1.27-1.28-.84-2.09-2.08-2.43-3.71l2.88-.69c.27,1.03.78,1.79,1.53,2.28.75.48,1.68.72,2.81.72,1.32,0,2.36-.28,3.14-.84.78-.56,1.17-1.23,1.17-2.01,0-1.29-.92-2.16-2.77-2.6l-3.14-.74c-3.37-.8-5.06-2.51-5.06-5.14,0-1.08.3-2.03.91-2.86.61-.83,1.44-1.47,2.49-1.94,1.05-.47,2.24-.7,3.58-.7,1.95,0,3.45.42,4.53,1.27,1.07.85,1.82,1.94,2.25,3.26l-2.75.71c-.26-.67-.69-1.29-1.29-1.84-.6-.55-1.51-.83-2.72-.83-1.12,0-2.06.26-2.81.78-.75.52-1.12,1.17-1.12,1.96,0,.7.25,1.26.76,1.68.51.42,1.31.76,2.41,1.02l2.85.67c1.71.4,2.97,1.03,3.79,1.88s1.23,1.92,1.23,3.21c0,1.1-.31,2.08-.94,2.94-.62.86-1.5,1.54-2.61,2.03s-2.41.74-3.89.74Z"/>
      <path class="cls-1" d="M491.73,132.39c-1.71,0-3.21-.4-4.49-1.21s-2.29-1.95-3.01-3.41-1.08-3.16-1.08-5.09.36-3.68,1.08-5.15c.72-1.47,1.72-2.6,3.01-3.41s2.79-1.21,4.49-1.21c1.82,0,3.42.46,4.8,1.37,1.38.92,2.32,2.19,2.84,3.83l-2.92.83c-.28-.97-.83-1.76-1.64-2.39-.82-.62-1.84-.94-3.08-.94s-2.29.33-3.1.99c-.81.66-1.41,1.52-1.8,2.59-.39,1.07-.59,2.23-.59,3.49s.2,2.39.59,3.45c.39,1.06.99,1.92,1.8,2.57.81.65,1.84.98,3.1.98s2.32-.32,3.15-.97c.83-.65,1.38-1.48,1.66-2.5l2.9.83c-.51,1.68-1.46,2.99-2.85,3.94-1.39.95-3.01,1.42-4.86,1.42Z"/>
      <path class="cls-1" d="M509.41,132.42c-1.19,0-2.27-.23-3.25-.67s-1.74-1.11-2.32-1.97c-.57-.86-.86-1.92-.86-3.15,0-1.08.21-1.96.64-2.63s1-1.21,1.71-1.59c.71-.39,1.5-.68,2.37-.87s1.74-.34,2.61-.46c1.12-.15,2.04-.26,2.75-.34.71-.08,1.23-.21,1.58-.4.34-.19.51-.52.51-.98v-.1c0-1.17-.33-2.08-1-2.72-.66-.65-1.65-.97-2.95-.97s-2.42.3-3.19.88c-.76.59-1.29,1.22-1.58,1.88l-2.92-.96c.48-1.15,1.14-2.04,1.96-2.69s1.73-1.1,2.72-1.37c.99-.27,1.97-.4,2.93-.4.63,0,1.35.08,2.15.23.8.15,1.58.45,2.33.9.75.45,1.37,1.11,1.85,2,.49.88.73,2.06.73,3.53v12.43h-2.98v-2.56h-.2c-.21.44-.56.89-1.03,1.36s-1.08.86-1.84,1.17c-.75.31-1.66.47-2.73.47ZM509.93,129.74c1.12,0,2.07-.22,2.85-.66.77-.44,1.37-1.01,1.77-1.71s.61-1.44.61-2.2v-2.61c-.12.15-.39.28-.81.4-.42.12-.89.22-1.42.31-.53.09-1.05.16-1.55.23-.5.06-.9.11-1.19.14-.73.09-1.41.25-2.05.46-.64.22-1.14.54-1.53.96-.38.42-.57.99-.57,1.71,0,.98.37,1.72,1.1,2.22s1.67.75,2.79.75Z"/>
      <path class="cls-1" d="M523.52,139.03v-25.9h2.93v3.02h.34c.21-.34.51-.76.89-1.27.38-.51.93-.97,1.65-1.37.72-.4,1.69-.61,2.92-.61,1.57,0,2.96.39,4.16,1.18,1.2.79,2.14,1.91,2.82,3.36.68,1.46,1.02,3.18,1.02,5.17s-.34,3.73-1.01,5.19c-.67,1.46-1.61,2.59-2.81,3.39-1.2.8-2.58,1.2-4.16,1.2-1.19,0-2.15-.21-2.88-.62s-1.29-.88-1.69-1.4c-.39-.52-.7-.96-.91-1.31h-.24v9.96h-3.04ZM531.81,129.68c1.18,0,2.17-.32,2.96-.95.79-.64,1.39-1.49,1.79-2.56.4-1.07.6-2.27.6-3.58s-.2-2.48-.59-3.53c-.39-1.05-.99-1.89-1.78-2.5-.79-.62-1.78-.93-2.98-.93-1.73,0-3.05.64-3.95,1.92s-1.35,2.96-1.35,5.04.46,3.81,1.37,5.13c.91,1.32,2.22,1.97,3.93,1.97Z"/>
      <path class="cls-1" d="M552.59,132.39c-1.82,0-3.39-.4-4.71-1.21s-2.34-1.94-3.05-3.39c-.71-1.45-1.07-3.14-1.07-5.08s.35-3.64,1.05-5.11,1.68-2.62,2.96-3.46c1.27-.83,2.77-1.25,4.48-1.25,1,0,1.99.17,2.96.5.97.33,1.85.86,2.65,1.6.79.74,1.42,1.71,1.9,2.91.47,1.2.71,2.68.71,4.42v1.26h-13.62c.08,1.97.64,3.48,1.69,4.53s2.41,1.58,4.09,1.58c1.11,0,2.07-.24,2.88-.73.8-.49,1.38-1.21,1.73-2.17l2.93.81c-.44,1.43-1.32,2.58-2.66,3.47-1.33.88-2.96,1.32-4.9,1.32ZM546.84,121.02h10.52c-.15-1.61-.65-2.91-1.51-3.92-.86-1.01-2.07-1.51-3.62-1.51-1.08,0-2.01.25-2.79.76-.78.51-1.4,1.17-1.85,1.99s-.7,1.71-.76,2.68Z"/>
    </g>
  </g>
  <g>
    <g>
      <path class="cls-4" d="M230.32,61.27c1.35-2.18,2.5-4.5,3.42-6.94.1-.28-.1-.57-.4-.57h-35.95c-.44,0-.58.58-.2.78,3.95,2.15,7.88,4.45,11.74,6.86.07.04.14.06.22.06h20.81c.15,0,.28-.08.36-.2Z"/>
      <path class="cls-4" d="M168.12,41.61c5.43,1.82,11.17,4.14,17.01,6.85.05.03.12.04.18.04h49.81c.2,0,.38-.14.42-.34.46-2.25.72-4.57.78-6.93,0-.24-.19-.44-.43-.44h-67.63c-.48,0-.59.66-.14.81Z"/>
      <path class="cls-4" d="M213.66,64.45c2.89,1.91,5.73,3.89,8.47,5.9.16.12.38.11.53-.02,2.05-1.8,3.9-3.8,5.54-5.97.21-.28,0-.68-.34-.68h-13.97c-.42,0-.58.54-.23.77Z"/>
      <path class="cls-4" d="M235.25,33.32c.26,0,.47-.24.42-.5C232.14,13.72,215.16-.51,195.13.01c-19.29.51-35.03,14.56-38.4,32.81-.05.26.16.5.42.5h78.1Z"/>
    </g>
    <g>
      <path class="cls-3" d="M274.07,95.87c-7.9-9.37-32.93-23.12-45.76-23.71-1.16-.05-4.59.65-7.66,1.35-21.19-15.61-46.81-28.31-64.6-31.37-2.3-.4-6.96.98-9.18,1.72-5.27,1.77-18.69,4.33-21.34,9.38-8.83-5.77-22.29-17.64-31.68-20.85-1.9-.65-6.63-2.68-11.22-1.15-5.23,1.74-12.75,10.53-17.21,13.77-8.05,5.84-23.69,15.82-31.99,21.29C25.39,71.59-1.11,83.77.04,88.04c.88,3.26,40.87-21.73,51.62-25.94,2.93-1.15-16.79,12.83-14.91,15.04,1.74,2.05,7.51-3.09,9.75-4.59,5.66-3.79,15.11-13.81,20.65-17.78,2.3-1.65,7.3-7.14,9.75-5.74,2.61,1.49-1.4,5.93-2.68,8.09-1.9,3.22,7.66,14.41,10.71,16.57,1.85,1.31,9.12,5.08,8.6,2.87-.7-3-5.85-6.35-7.2-10.64-1.19-3.78-1.02-11.98.25-15.8s4.54,2.78,7.52,5.23c5.6,4.59,17.13,14.07,24.09,16.06,3.57,1.02-5.65-8.49-8.03-10.9-4.04-4.07-12.87-8.96-16.44-13.45-1.76-2.21-4.21-6.18-4.84-8.67-1.01-3.93,8.62,4.55,12.11,6.63,12.19,7.28,31.54,20.2,43.85,27.28,10.53,6.05,33.43,18.58,44.87,22.69,4.97,1.78,7.53,2.97,7.65,1.66.32-3.58-36.13-22.89-58.79-35.71,3.24-1.32,6.82-3.86,9.59-3.42,3.54.55,10.27,5.34,13.06,7.58,3.09,2.48,7.07,6.69,13.7,9.62,2.24.99-2.22-3.43-3.57-5.48-2.84-4.32-11.44-13.74-16.06-16.06-1.56-.78-3.57-2.04-7.27-2.42-2.39-.25,2.93-3.31,10.2-1.15,28.42,8.48,100.4,59.73,83.87,42.44-4.75-4.96-10.28-9.89-16.29-14.62.54-.24,1.04-.37,1.38-.29,9.43,2.29,20.01,8.35,36.71,14.79,1.2.46,11.02,4.93,10.2,3.95Z"/>
      <path class="cls-3" d="M195.27,123.57c-5.68-.29-14.4-.54-19.53-.66-.38.01-.54-.03-.52-.41,0-1.3,0-8.51,0-10.15-.06-.47.34-.54.72-.54,1.18-.02,4.53,0,5.32-.01.1,0,.09,0,.15,0,.07,0,.09-.09.09-.11-.01-.05-.07-.17-.23-.34-2.01-2.05-4.51-4.48-8.13-8.12-3.23-3.3-11-11.65-14.1-14.21-.39-.33-.91-.44-1.41-.33-.9.2-1.85.33-3.36.59-6.78,1.07-26.93,3.97-31.31,4.53-.06,0-.09-.01-.12-.06-.05-.1-.04-.36-.04-.88,0-1.51,0-4.99,0-7.07-.02-.66.1-1.96-.25-1.86-1.79-.11-8.79,0-10.11-.02-.45.02-.33.29-.35,1.22,0,2.84.01,7.46,0,10.53,0,.4-.16.79-.44,1.07-2.97,2.94-16.46,13.56-20.16,16.8-.09.07-.17.14-.25.2-.42.38-.74.55.06.58,1.25.04,4.84.11,6.09.16.57-.02.76.31.76.83.05,1.01.13,3.32.15,4.02-.03.17.05.46-.06.49-1.12-.13-17.25-2.21-32.35-3.74.44-.54.11-1.95.51-2.23.53-.29,1.21.07,1.79.13,1.92.39,4.08.95,6.11,1.26.17,0-.14-.17-.66-.45-.61-.33-1.24-.69-1.75-1.12l-.09-.08c-5.18-5.04-4.37-3.84,1.59-3.23,1.44.25.33-.4-.14-.79-2.37-1.98-6.1-3.13-6.62-6.5.06-.11.19-.1.32-.08.55.08,2.03.57,2.81.77.43.12.64.15.62.03-.58-.84-1.6-1.86-2.25-2.74-1.71-1.96-2.23-4.84-3.11-7.21-1.06,2.25-1.87,6.47-4.14,8.13-.64.6-1.46,1.35-2.4.96-1.67-.8-2.85-2.22-3.89-3.68-.13-.22-.46-.6-.1-.68.47-.07,2.42.26,3.32.33.98.12.48-.2.05-.55-1.54-1.21-3.19-2.31-4.2-3.8-.49-.71-.84-1.57-1.05-2.39-.05-.31-.14-.52.07-.64.82-.02,3.33,1.06,4.51,1.36.52.16.6.15.29-.1-.37-.3-.98-.81-1.43-1.19-1.54-1.26-2.64-2.47-3.33-4.36-.53-1.28-1.06-2.8-1.47-4.07-.12-.36-.19-.55-.25-.49-.02.02-.05.06-.07.13-.23.66-1.07,3.71-1.8,5.19-.82,1.78-4.72,5.13-5.19,5.71-.03.11.23,0,.36-.05,1.26-.47,2.83-1.08,4.07-1.56.69-.26,1.06-.41,1.06-.15-.06.51-.49,1.2-.74,1.71-1.25,2.42-3.56,3.64-5.65,5.19,1.13.2,3.13-.34,4.41-.22,1.07.16-2.99,3.57-3.55,3.83-.96.67-2.42,1.54-2.27,1.61.7.02,2.88-.56,3.73-.7.44-.02,2.93-.9,2.7-.2-1.9,2.25-4.36,4.12-6.79,5.69-.27.17-.62.4-.79.56-.15.16.21.1.91,0,.98-.14,2.48-.36,3.57-.52,2.12-.28,2.65-.55,1.39.53-.9.8-1.69,1.72-2.76,2.29-1.23.69-3.58,1.7-3.78,1.87-.03.03-.03.05,0,.06.07.02.27.02.57,0,2.2-.14,4.52-.25,6.6-.76.57-.09,1.2-.32,1.75-.25.65.16.32,1.34.57,2.06-1.53-.09-2.94-.15-4.17-.19-14.07,0-27.7,3.32-41.87,9.48l-.1.04c-11.39,4.7,27.28-5.87,45.5-4.32,19.9,1.05,73.47,7.8,73.38,7.8-.79.17-1.53.3-3.13.64-12.64,2.6-27.36,5.83-40.54,9.16-11.01,2.91-18.63,4.77-25.74,8.17-13.66,6.87,44.53-6.52,62.42-9.02,29.39-5.25,55.63-7.61,86.53-12.18.46-.25-2.35-.49-6.26-.69ZM53.94,103.06c1.53.36,2.84.22,4.34.59.39.24-.61.74.2.45,1.17-.36,4.23-1.55,4.99-1.67.11.53-.41,1.84-.6,2.42l-.05.12c-.38.8-1.1,1.65-1.73,2.31-.46.42-.98,1.03-1.64,1.01-.54-.04-1.01-.53-1.47-.83-1.69-1.23-3.23-2.36-4.87-3.68-.28-.25-.89-.66-.9-.92.46-.16,1.22.15,1.74.2ZM57.4,110.1c.57-.06,3.83-.49,4.4-.54.18,0,.11.11.06.29-.26.62-.64,1.58-.93,2.18l-.05.09c-.27.45-.83,1.19-1.46.87-1.35-.68-3.44-1.89-4.13-2.66-.39-.58-1.72-1.69-1.99-1.92.09-.16,4.31.24,5.44.3.05.02.06.05.04.1-.12.2-1.01.86-1.3,1.1-.19.16-.24.2-.07.19ZM50.51,114.74c.28-.56.08-1.47.53-1.71.37-.21.9-.09,1.33-.06,1.76.19,3.7.27,5.6.45.73.1.98.26.58.85-.02.07.06.11.26.12,1.54.01,3.53-.28,5.06-.3.93.05.54,1.3.92,1.88-5.14-.51-10.12-.96-14.28-1.23ZM120.84,94.8l-.03.04c-.85.85-2.85,2.23-3.82,3.03-.26.17-.43.39-.5.11-.03-1.11,0-9.41-.01-11.4,0-.21-.02-.37.12-.49.85-.23,2.58-.04,3.61-.09.36,0,.73.04.7.5-.05,1.3.14,6.38-.08,8.3ZM154.95,123.07c-2.35,0-5.15,0-7.44,0-.94,0-1.49.01-1.73-.23l-.03-.04c-.25-.28-.21-.97-.22-2.12,0-2.04,0-4.53,0-6.63.02-1.35-.21-2.35,1.38-2.23,2.71-.02,5.8,0,8.47,0,2.13-.03,2.13.03,2.12,2.24,0,2.28,0,5.09,0,7.43.15,2.05-1.12,1.49-2.55,1.58ZM171.61,121.85c.11,1.39-.96,1.2-2.13,1.22-1.99,0-4.32,0-6.27,0-1.1,0-1.76.03-2.03-.21l-.04-.04c-.23-.24-.22-.78-.22-1.69,0-2.11,0-4.77,0-6.95.07-1.3-.39-2.5,1.49-2.36,2.25-.01,4.85,0,7.07,0,2.13-.02,2.16.03,2.14,2.07,0,2.48.02,5.43,0,7.96ZM171.39,108.77c-2.64-.11-21.87.3-25.86-.14,2.4-2.73,6.66-6.68,9.38-9.51,1.75-1.61,2.36-2.67,3.38-3.15h.04c.93.39,1.46,1.29,3.06,2.71,1.5,1.45,3.41,3.28,5.16,4.96,2.12,2.1,3.74,3.46,5.06,4.95.05.11-.02.16-.22.18Z"/>
    </g>
  </g>
</svg>